<?xml version="1.0" standalone="no"?>
<!DOCTYPE svg PUBLIC "-//W3C//DTD SVG 20010904//EN"
 "http://www.w3.org/TR/2001/REC-SVG-20010904/DTD/svg10.dtd">
<svg version="1.0" xmlns="http://www.w3.org/2000/svg"
 width="1024.000000pt" height="768.000000pt" viewBox="0 0 1024.000000 768.000000"
 preserveAspectRatio="xMidYMid meet">
<metadata>
Created by potrace 1.15, written by Peter Selinger 2001-2017
</metadata>
<g transform="translate(0.000000,768.000000) scale(0.100000,-0.100000)"
fill="#000000" stroke="none">
<path d="M4366 5561 c-4 -6 -54 -9 -137 -8 -71 2 -132 0 -135 -3 -7 -6 -13 -7
-64 -9 -39 -1 -58 -20 -22 -22 28 -1 -17 -17 -51 -18 -15 -1 -45 -12 -66 -25
-21 -13 -80 -34 -132 -46 -52 -12 -108 -28 -124 -35 -17 -7 -66 -22 -110 -34
-44 -12 -87 -28 -95 -36 -8 -7 -40 -24 -70 -38 -30 -13 -61 -31 -69 -40 -7
-10 -21 -17 -31 -17 -10 0 -23 -6 -30 -14 -6 -8 -21 -16 -33 -18 -14 -2 -23
-11 -25 -26 -2 -12 -12 -28 -23 -35 -25 -15 -24 -23 2 -30 12 -3 18 -10 15
-16 -4 -5 1 -14 10 -19 12 -7 15 -16 10 -28 -7 -18 -9 -18 -26 4 -20 24 -40
22 -40 -4 0 -9 -10 -24 -22 -35 -20 -16 -21 -20 -8 -30 13 -9 12 -10 -2 -5
-16 5 -23 -4 -19 -26 0 -5 -3 -8 -8 -8 -12 0 -42 -60 -36 -71 3 -4 -4 -13 -15
-19 -11 -6 -20 -17 -20 -24 0 -7 -13 -29 -30 -47 -32 -37 -37 -55 -17 -62 9
-3 8 -9 -4 -23 -24 -29 -56 -112 -68 -176 -5 -31 -21 -79 -34 -105 -51 -101
-59 -145 -54 -276 3 -67 10 -144 15 -172 6 -27 13 -114 17 -192 6 -140 9 -168
40 -333 9 -47 25 -144 35 -217 11 -73 28 -160 40 -194 25 -76 26 -132 3 -150
-12 -10 -59 -15 -177 -17 l-161 -4 -42 31 -43 31 -42 -22 c-77 -41 -129 -29
-278 62 -38 23 -77 40 -95 40 -17 0 -82 -18 -145 -39 -63 -22 -182 -56 -265
-76 l-150 -38 -653 -1 c-568 -1 -654 -3 -663 -16 -38 -58 -99 -231 -99 -282 0
-23 7 -41 21 -54 39 -34 48 -73 39 -149 -13 -96 -12 -128 3 -148 11 -16 47
-18 377 -23 511 -7 513 -7 630 7 142 16 412 17 477 3 35 -8 66 -9 92 -3 22 5
109 11 193 14 84 2 194 10 244 16 80 11 97 10 147 -6 37 -11 68 -15 89 -11
100 21 154 24 348 16 188 -8 215 -11 232 -27 30 -30 25 -135 -14 -268 -14 -47
-17 -70 -9 -73 6 -2 11 -10 11 -18 0 -15 21 -15 32 1 16 21 19 -27 4 -50 -15
-23 -15 -28 -1 -47 12 -19 15 -19 15 -5 0 9 9 26 21 38 11 11 18 27 15 34 -2
7 6 21 20 29 13 9 24 23 24 31 0 8 7 15 15 15 20 0 19 10 -5 40 -23 30 -26 54
-5 47 20 -8 29 11 14 29 -10 12 -9 19 9 37 12 12 22 16 22 9 0 -7 -4 -12 -8
-12 -4 0 -8 -9 -9 -20 -1 -15 4 -20 22 -20 13 0 26 6 28 13 4 9 8 9 15 -2 7
-9 12 -10 16 -2 9 14 26 5 26 -15 0 -8 -9 -14 -21 -14 -12 0 -19 -5 -16 -12 2
-7 9 -13 15 -13 5 0 14 -3 18 -8 4 -4 -1 -7 -12 -7 -10 0 -28 -7 -38 -15 -19
-14 -19 -15 7 -15 22 0 27 -5 27 -25 0 -16 6 -25 15 -25 13 0 13 -3 3 -20 -7
-11 -19 -18 -26 -15 -7 2 -22 -5 -33 -16 -17 -17 -20 -28 -14 -58 3 -20 7 -42
7 -49 1 -10 16 -12 66 -7 52 5 64 3 59 -8 -3 -7 4 -19 14 -25 24 -15 28 -102
5 -102 -18 0 -25 -20 -15 -40 4 -8 10 -24 14 -35 5 -16 8 -17 15 -5 17 27 83
-19 114 -78 9 -17 16 -37 16 -45 0 -8 9 -22 20 -32 11 -10 20 -31 20 -47 0
-34 16 -68 32 -68 7 0 8 14 4 41 -4 26 -3 38 3 34 6 -3 16 3 23 14 9 15 15 17
25 9 18 -15 17 -42 -2 -34 -8 3 -15 1 -15 -5 0 -6 -4 -7 -10 -4 -26 16 -6 -19
31 -55 23 -22 35 -40 27 -40 -8 0 -18 4 -24 9 -5 5 -29 7 -54 4 -41 -5 -45 -8
-46 -33 -1 -22 3 -26 18 -23 14 4 18 0 18 -21 0 -19 -5 -26 -19 -26 -11 0 -21
6 -24 13 -2 6 -3 4 -1 -6 3 -21 -34 -60 -79 -84 -18 -9 -26 -18 -19 -20 22 -8
13 -24 -11 -18 -16 4 -29 0 -41 -14 -11 -12 -27 -21 -37 -21 -18 0 -321 149
-498 245 -47 25 -89 45 -94 45 -5 0 -23 6 -40 14 -69 32 -187 49 -187 27 0 -5
7 -22 15 -37 18 -34 20 -58 4 -48 -21 12 -170 13 -166 0 3 -6 10 -10 18 -8 13
3 19 1 94 -34 l40 -18 -32 -4 c-18 -2 -47 4 -65 12 -41 19 -149 17 -156 -3 -6
-18 13 -28 75 -41 67 -14 113 -37 113 -56 0 -11 -6 -13 -22 -8 -13 4 -34 8
-48 8 -20 1 -25 -4 -25 -23 0 -15 -8 -27 -22 -32 -23 -8 -40 -29 -24 -29 5 0
13 5 16 10 8 13 25 13 25 0 0 -5 -5 -10 -11 -10 -6 0 -17 -7 -25 -15 -9 -9
-35 -16 -62 -16 -41 -1 -43 -2 -17 -8 29 -7 29 -7 8 -15 -13 -4 -23 -11 -23
-16 0 -5 -10 -10 -22 -12 -19 -2 -23 -9 -22 -35 1 -18 -2 -33 -7 -33 -5 0 -9
5 -9 11 0 8 -5 8 -15 -1 -9 -8 -29 -10 -50 -7 -35 6 -59 -8 -32 -19 9 -3 13
-13 10 -25 -7 -25 -23 -35 -32 -20 -10 15 -41 3 -41 -15 0 -8 7 -14 17 -14 9
0 32 -12 52 -27 20 -15 43 -28 51 -28 8 0 16 -10 18 -22 4 -26 -10 -30 -28 -8
-8 9 -22 13 -39 10 -14 -3 -40 3 -58 12 -32 17 -34 17 -55 -4 l-21 -22 46 -12
c46 -11 88 -51 67 -64 -21 -13 -9 -25 25 -25 19 0 35 -4 35 -9 0 -5 10 -11 23
-13 12 -2 21 -9 20 -15 -2 -7 4 -10 12 -7 8 4 15 2 15 -3 0 -16 -57 -43 -90
-43 -21 0 -30 -4 -28 -12 3 -7 10 -13 16 -13 6 0 20 -8 31 -17 22 -19 19 -48
-5 -48 -16 0 -19 -16 -4 -25 6 -3 10 -16 10 -27 0 -20 -1 -20 -18 -4 -18 15
-21 15 -44 -4 -19 -15 -26 -29 -26 -55 0 -23 4 -35 12 -32 6 2 10 12 10 21 -1
9 4 16 11 16 7 0 26 3 43 6 29 6 31 4 28 -21 -2 -15 -8 -30 -15 -34 -13 -9
-159 -6 -168 3 -4 3 -16 6 -28 6 -19 0 -21 -4 -17 -28 2 -15 11 -34 18 -43 8
-9 11 -19 7 -23 -4 -4 -1 -11 7 -16 12 -8 12 -10 1 -10 -8 0 -11 -6 -7 -17 6
-14 3 -14 -16 3 -13 12 -40 25 -60 28 -21 4 -44 13 -52 21 -17 17 -36 20 -36
5 0 -21 -49 -9 -69 16 -16 21 -23 23 -40 15 -11 -6 -30 -11 -44 -11 -13 0 -27
-3 -30 -6 -10 -10 12 -44 28 -44 8 0 15 -9 15 -21 0 -16 4 -19 20 -14 11 4 20
2 20 -4 0 -11 3751 -17 3762 -6 10 10 -16 55 -32 55 -22 1 -53 27 -46 39 4 5
2 12 -4 16 -6 3 -13 -1 -16 -9 -3 -9 -10 -13 -16 -10 -5 3 -7 13 -4 21 4 9 -4
26 -20 41 -14 15 -21 28 -15 30 20 7 11 23 -11 20 -34 -5 -32 19 3 26 l31 6
-31 35 c-17 20 -31 40 -31 46 0 6 -4 7 -10 4 -6 -4 -10 6 -10 23 0 19 -10 39
-30 58 -18 17 -30 40 -30 55 0 15 -6 29 -14 32 -20 8 -36 -12 -26 -32 10 -19
22 -51 26 -68 1 -7 12 -26 24 -43 12 -17 20 -37 17 -44 -3 -7 3 -20 14 -29 19
-17 27 -43 10 -32 -19 11 -20 -13 -1 -33 19 -20 27 -62 14 -75 -7 -6 -34 16
-34 28 0 4 -7 13 -15 21 -8 9 -15 24 -15 35 0 10 -7 19 -15 19 -8 0 -15 7 -15
16 0 20 -70 223 -86 249 -6 11 -15 37 -18 58 -4 20 -11 37 -16 37 -6 0 -10 8
-10 18 0 51 -149 316 -167 298 -3 -2 1 -15 8 -28 7 -12 16 -39 19 -60 11 -58
-13 -37 -48 43 -17 38 -37 69 -44 69 -30 0 -35 20 -17 58 10 20 23 68 29 107
16 102 27 119 75 123 68 5 202 41 305 82 54 22 107 40 118 40 12 0 33 5 49 11
15 6 46 11 67 11 23 -1 51 7 65 17 14 10 37 22 50 26 69 21 183 129 221 210
46 99 73 234 58 291 -5 22 -14 64 -18 94 -10 69 -34 160 -49 188 -13 25 -14
52 -2 52 5 0 11 -12 13 -27 3 -25 7 -28 33 -24 96 11 223 1 310 -25 78 -23
115 -28 270 -33 99 -3 194 -3 210 1 17 3 73 13 125 21 123 19 530 18 575 -2
33 -14 85 -12 452 16 194 15 216 15 275 0 45 -11 85 -14 134 -10 38 3 83 6 99
5 17 0 84 0 150 0 66 1 232 0 369 -1 138 -1 279 3 315 8 36 6 95 13 131 16 36
2 92 9 125 15 33 6 119 11 190 10 352 -4 473 -9 505 -19 48 -15 92 -14 177 6
l73 17 0 148 0 148 -25 10 c-46 17 -94 65 -101 100 -9 45 -20 54 -105 90 -47
19 -103 47 -124 62 -22 14 -78 36 -124 49 -90 24 -139 57 -168 113 -9 17 -21
34 -27 38 -5 4 -34 -15 -63 -43 -31 -29 -61 -49 -75 -49 -13 0 -126 -1 -253
-3 l-230 -2 -170 -69 c-169 -69 -170 -69 -290 -76 -78 -4 -132 -12 -155 -22
-19 -9 -71 -31 -114 -49 -95 -39 -118 -59 -115 -102 4 -68 -1 -84 -50 -137
-44 -48 -53 -53 -100 -58 -96 -9 -217 64 -261 157 -20 43 -22 56 -12 72 20 32
13 56 -25 86 -64 49 -86 60 -136 67 -62 9 -105 28 -142 61 -16 15 -46 39 -66
53 l-35 27 -570 3 c-563 3 -570 3 -619 -18 -28 -12 -79 -24 -115 -27 -89 -7
-102 7 -98 107 l3 73 69 36 c85 44 114 78 94 110 -7 12 -21 24 -30 27 -10 3
-18 13 -18 22 0 15 -2 15 -10 2 -8 -12 -10 -10 -10 9 0 19 -3 21 -14 12 -11
-9 -15 -7 -20 12 -5 20 -12 24 -53 26 -26 1 -52 6 -58 12 -13 13 -19 12 -45
-11 -25 -22 -47 -25 -70 -10 -9 5 -19 5 -27 -2 -8 -6 -16 -8 -20 -5 -3 4 -13
2 -20 -5 -9 -7 -17 -8 -21 -2 -4 5 -14 9 -22 9 -8 0 -15 7 -15 15 0 17 25 50
39 50 5 0 24 16 41 36 33 36 33 36 27 9 -4 -24 -2 -27 13 -21 10 3 25 1 33 -6
12 -10 14 -10 8 0 -4 6 -2 12 3 12 21 0 10 21 -19 38 -16 9 -30 21 -30 25 0 5
5 5 10 2 6 -3 10 -1 10 5 0 6 5 8 10 5 6 -4 8 -11 5 -16 -3 -5 2 -6 11 -2 13
5 15 3 9 -7 -5 -9 -4 -11 3 -6 7 4 12 14 12 22 0 9 -5 12 -11 8 -6 -3 -15 0
-20 7 -6 10 -2 16 14 19 18 5 22 13 21 40 -3 65 -9 125 -15 135 -3 6 -5 21 -5
35 1 20 7 26 28 28 24 3 32 -4 55 -42 15 -25 32 -46 36 -46 5 0 6 35 2 78 -6
71 -5 80 16 106 21 27 25 28 85 23 51 -4 72 -11 111 -39 30 -22 49 -43 51 -59
2 -13 0 -21 -4 -16 -8 8 -39 -51 -35 -67 1 -5 -4 -4 -12 2 -13 11 -37 7 -204
-34 -8 -2 -4 -18 13 -48 14 -25 29 -48 33 -50 3 -3 42 4 86 14 110 26 115 26
115 -9 0 -16 6 -31 15 -35 10 -3 15 1 15 13 0 11 3 26 6 35 3 9 1 16 -4 16 -6
0 -13 -12 -15 -27 -4 -27 -4 -27 -6 3 0 20 5 34 14 38 8 3 14 11 13 17 -2 6 2
13 8 16 13 4 18 -88 8 -152 -6 -42 -19 -53 -36 -30 -5 6 -8 4 -9 -5 0 -10 -3
-9 -8 4 -6 16 -12 7 -26 -42 -10 -34 -24 -62 -31 -62 -7 0 -9 -10 -6 -25 4
-24 5 -24 18 -8 11 15 13 15 14 3 0 -8 9 3 19 25 11 22 20 34 20 26 1 -18 -48
-131 -67 -153 -11 -13 -11 -18 -3 -18 22 0 60 51 81 108 29 77 78 285 86 367
l7 67 -55 52 c-71 67 -166 114 -248 123 -50 5 -63 10 -70 27 -5 12 -23 36 -40
54 -27 28 -37 32 -61 27 -20 -5 -29 -3 -30 7 0 7 -5 -3 -11 -22 -9 -32 -11
-33 -21 -15 -5 11 -39 48 -74 83 -34 35 -63 70 -63 78 0 8 -9 14 -20 14 -11 0
-20 3 -20 8 0 7 -13 13 -100 47 -29 12 -186 45 -209 45 -3 0 0 -4 7 -9 10 -6
9 -10 -7 -14 -12 -3 -21 0 -21 6 0 7 -7 3 -15 -7 -8 -11 -15 -14 -15 -8 0 7
-14 12 -31 12 -24 0 -29 -3 -21 -13 8 -10 2 -12 -31 -10 -32 2 -37 1 -22 -6
16 -8 10 -10 -27 -10 -25 -1 -53 -4 -62 -7 -9 -3 -16 -1 -16 4 0 6 8 13 18 15
16 4 16 5 0 6 -10 0 -18 6 -18 13 0 6 -3 8 -7 4 -4 -4 -8 -15 -8 -24 0 -11 -9
-18 -25 -19 -14 -1 -18 0 -7 3 25 8 21 24 -5 24 l-23 0 25 20 25 20 -22 1
c-39 3 -43 4 -42 14 0 6 6 9 14 7 9 -2 12 4 8 18 -8 29 -21 34 -40 14 -16 -16
-18 -15 -27 6 -8 17 -7 25 2 28 22 7 13 19 -18 26 -27 5 -30 8 -20 26 6 11 15
20 20 20 26 0 6 19 -26 25 -43 8 -68 29 -60 50 3 9 -1 15 -10 15 -8 0 -25 5
-37 11 l-21 12 22 8 c31 12 28 31 -3 23 -19 -5 -25 -2 -25 10 0 9 -8 16 -21
16 -11 0 -18 4 -15 9 11 17 -21 33 -43 21 -19 -10 -21 -8 -21 16 0 24 -3 26
-30 20 -28 -5 -30 -4 -24 18 4 18 0 28 -17 40 -16 11 -19 16 -9 16 8 1 -3 11
-25 23 -30 16 -40 27 -37 42 2 16 1 17 -7 5 -9 -13 -11 -13 -11 2 0 9 -11 34
-25 54 -25 37 -33 74 -16 74 6 0 16 12 23 27 20 40 46 52 63 29 10 -13 21 -17
39 -12 14 3 28 1 31 -5 9 -13 53 -32 80 -33 11 -1 19 -7 17 -15 -2 -9 4 -12
18 -8 11 3 18 1 15 -3 -8 -14 30 -30 69 -30 19 0 38 -4 41 -10 10 -16 26 -11
23 8 -2 13 5 18 30 20 17 2 32 6 32 10 0 4 12 8 28 9 48 3 92 15 92 25 0 6 11
7 25 4 14 -4 25 -5 25 -3 0 4 -17 25 -50 65 -12 14 -13 13 55 18 131 10 178 3
270 -37 11 -5 42 -16 68 -24 43 -14 74 -36 123 -82 7 -7 19 -13 27 -13 7 0 17
-3 21 -7 15 -15 48 -12 88 9 53 27 74 52 89 101 13 40 8 56 -13 40 -13 -10
-58 -15 -58 -7 0 5 23 47 30 54 7 7 30 49 30 55 0 2 -6 2 -13 -1 -10 -3 -14 4
-15 25 -1 55 -32 74 -32 21 0 -17 -9 -39 -20 -50 -11 -11 -19 -25 -17 -31 1
-6 -4 -14 -10 -16 -11 -4 -18 15 -14 40 0 4 -6 7 -14 7 -20 0 -24 61 -5 68 10
4 -46 116 -66 133 -20 16 -28 5 -14 -20 16 -31 7 -26 -20 11 -17 24 -19 30 -7
25 10 -4 17 -3 17 2 0 9 -32 26 -85 42 -22 7 -44 17 -50 21 -5 4 -24 8 -43 8
-19 0 -69 16 -112 35 -43 19 -82 35 -87 35 -5 0 -28 16 -50 35 -45 38 -58 44
-49 20 7 -20 -23 -20 -52 1 -24 17 -119 44 -169 49 -18 2 -36 6 -41 9 -18 11
-340 18 -346 7z m-864 -1680 c26 -12 48 -31 51 -42 4 -16 2 -19 -13 -14 -9 3
-59 7 -110 8 -96 3 -138 -8 -187 -52 -27 -22 -63 -102 -63 -137 0 -13 -4 -24
-9 -24 -4 0 -16 -17 -25 -37 l-16 -38 4 57 c6 74 54 181 105 234 72 74 169 91
263 45z m-105 -208 c-4 -3 -1 -13 5 -21 11 -13 37 -78 38 -93 0 -4 -8 -9 -18
-11 -25 -7 -65 -92 -68 -141 -2 -41 10 -61 74 -124 22 -22 46 -34 77 -39 40
-6 50 -13 88 -63 38 -49 47 -56 77 -56 l35 0 -2 54 c-2 45 -8 60 -32 85 l-30
31 12 78 c14 89 32 112 74 96 13 -5 34 -9 45 -9 17 0 18 2 8 15 -10 12 -9 15
5 15 14 0 15 3 5 15 -7 8 -9 15 -5 15 13 0 34 -34 35 -55 0 -11 7 -31 16 -43
9 -13 13 -31 9 -43 -5 -16 -4 -19 5 -14 10 6 11 4 4 -6 -5 -8 -9 -21 -9 -29 0
-8 -7 -32 -15 -52 -12 -31 -19 -38 -42 -38 -16 0 -28 -6 -28 -12 0 -9 -3 -8
-10 2 -14 23 -21 7 -10 -29 16 -56 3 -89 -44 -110 -76 -35 -79 -40 -54 -88 12
-24 27 -43 33 -43 6 0 11 -16 12 -35 1 -43 -33 -73 -64 -56 -10 5 -44 19 -75
30 -32 12 -77 33 -99 48 -23 16 -51 33 -63 40 -40 24 -76 77 -96 143 -24 81
-26 112 -5 104 8 -3 17 -13 20 -22 6 -22 66 -69 96 -77 14 -3 32 0 43 8 26 19
15 45 -42 108 -60 66 -72 89 -79 153 -6 57 31 246 48 246 5 0 9 7 9 15 0 8 5
15 12 15 6 0 8 -3 5 -7z m1421 -59 c35 -7 42 -20 15 -27 -10 -3 1 -4 25 -2 24
2 42 -1 42 -7 0 -6 7 -8 15 -4 8 3 22 3 31 -1 13 -5 13 -7 2 -14 -9 -6 -7 -9
10 -9 12 0 30 5 40 11 14 9 25 8 50 -5 20 -10 42 -14 58 -10 35 9 71 -13 91
-54 15 -30 92 -101 125 -115 17 -7 -19 -37 -44 -37 -10 0 -18 -5 -18 -11 0 -7
-10 -9 -24 -5 -14 3 -27 2 -30 -3 -3 -5 -14 -7 -25 -4 -24 6 -35 -21 -15 -38
12 -10 12 -14 2 -20 -7 -5 -17 -9 -23 -9 -5 0 -3 5 5 10 13 8 12 10 -3 10 -11
0 -21 -9 -24 -20 -4 -15 -11 -18 -30 -14 -16 4 -28 2 -34 -7 -4 -8 -12 -14
-16 -14 -4 -1 -18 -6 -29 -13 -12 -6 -24 -8 -28 -4 -4 3 -11 0 -17 -8 -7 -12
-11 -12 -17 -2 -5 7 -16 10 -24 7 -9 -4 -19 -2 -23 4 -4 7 1 9 12 5 16 -5 16
-4 -1 10 -22 18 -14 21 15 6 24 -13 25 1 1 16 -25 16 -69 -1 -53 -20 9 -11 9
-15 -1 -19 -20 -6 -37 3 -32 18 8 19 -56 32 -67 14 -12 -19 -2 -24 18 -9 10 8
5 1 -10 -15 -27 -26 -31 -27 -67 -16 -49 14 -51 14 -43 -6 5 -15 4 -16 -8 -7
-8 6 -20 13 -28 16 -11 3 -10 7 3 21 16 16 16 17 -8 17 -15 0 -35 -6 -46 -12
-16 -10 -22 -10 -32 1 -10 11 -11 14 0 18 7 3 17 13 22 23 8 15 6 17 -13 12
-21 -5 -21 -5 -4 12 10 11 26 16 37 13 11 -3 20 -2 20 3 0 11 -39 20 -45 10
-3 -4 -17 -11 -31 -14 -15 -4 -33 -14 -41 -22 -8 -8 -19 -11 -25 -8 -6 4 -5
-2 1 -15 7 -12 8 -21 2 -21 -5 0 -18 -3 -28 -7 -16 -6 -16 -5 -5 9 10 13 11
22 2 38 -6 11 -8 25 -5 30 4 6 -7 13 -24 16 -45 9 -38 21 14 21 26 0 42 -4 38
-10 -3 -6 -1 -7 5 -3 7 4 12 1 12 -8 0 -18 15 -21 25 -7 3 5 -4 16 -15 24 -15
10 -19 22 -16 45 3 25 0 32 -14 32 -21 0 -34 -27 -17 -34 7 -2 2 -5 -10 -5
-12 -1 -25 4 -28 9 -3 6 -17 10 -31 10 -26 0 -32 14 -12 26 7 4 28 9 48 11 19
2 39 8 44 13 11 11 -11 40 -30 40 -19 0 -18 -10 4 -26 15 -12 15 -13 0 -14 -9
0 -18 5 -20 11 -3 9 -10 9 -27 0 -12 -7 -25 -10 -28 -8 -2 3 5 8 16 12 12 3
21 11 21 18 0 6 10 21 22 34 l22 24 -23 6 c-17 4 -19 8 -10 14 8 5 21 2 31 -8
14 -13 23 -14 40 -5 18 8 19 11 6 11 -54 2 24 51 81 51 23 0 41 4 41 9 0 6 9
9 19 8 11 -1 17 -6 14 -14 -4 -10 0 -11 20 -4 14 5 28 7 31 4 3 -3 9 2 12 11
7 18 25 18 112 0z m586 -49 c9 -14 21 -23 26 -20 6 4 10 -1 10 -10 0 -11 -6
-14 -24 -9 -24 6 -24 5 -13 -28 7 -18 16 -39 20 -45 5 -8 3 -13 -4 -13 -6 0
-9 -8 -6 -19 4 -18 2 -18 -22 -8 -68 29 -121 89 -121 137 0 13 3 20 7 17 3 -4
13 -1 21 6 12 9 16 9 19 0 4 -10 10 -9 26 2 30 21 42 19 61 -10z m1593 -845
c21 -10 41 -16 45 -14 4 3 21 -2 38 -11 17 -9 34 -13 39 -11 5 3 14 -1 21 -9
7 -8 18 -15 24 -15 17 -1 99 -87 92 -98 -3 -5 1 -15 9 -22 8 -7 15 -23 15 -35
0 -16 8 -25 25 -29 18 -5 25 -13 25 -31 0 -33 -23 -32 -56 0 -14 14 -29 25
-34 25 -4 0 -6 9 -3 20 3 11 0 20 -6 20 -6 0 -11 -7 -11 -15 0 -24 -33 -17
-55 11 -43 58 -176 103 -213 72 -26 -21 -63 -34 -107 -37 -31 -1 -47 4 -73 26
-70 60 -56 155 26 168 20 4 42 8 47 10 21 9 116 -7 152 -25z m-1426 -40 c12
-7 19 -22 20 -43 0 -18 3 -25 6 -17 7 19 34 50 44 50 9 0 -1 -79 -13 -102 -9
-18 -38 -25 -38 -10 0 4 -18 8 -41 8 -25 1 -47 8 -57 19 -10 10 -11 15 -4 11
14 -8 17 10 2 19 -16 10 -12 24 15 50 27 28 37 30 66 15z m294 -122 c60 -56
64 -166 7 -234 -16 -19 -71 -44 -97 -44 -11 0 -37 49 -50 96 -3 11 -11 21 -18
21 -8 0 -11 -16 -8 -56 l3 -55 -32 34 c-18 19 -39 45 -48 58 -8 12 -23 22 -33
22 -10 0 -20 4 -23 9 -10 15 46 22 84 11 43 -12 40 -13 40 6 0 8 5 12 10 9 6
-3 10 -1 10 5 0 6 4 9 9 5 6 -3 7 9 4 31 -4 26 -3 35 5 30 6 -4 19 12 31 39
25 57 55 60 106 13z m-1118 -1695 c6 -55 -22 -160 -58 -220 -25 -40 -112 -91
-159 -93 -55 -3 -60 -1 -60 20 0 25 -17 26 -23 3 -4 -15 -5 -15 -6 2 0 11 8
35 19 53 11 18 20 40 20 50 0 37 52 58 64 27 9 -23 -5 -47 -24 -42 -13 3 -16
0 -13 -14 3 -11 9 -22 13 -24 12 -7 70 44 70 61 0 8 14 28 30 46 30 31 38 44
20 33 -5 -3 -10 0 -10 7 1 21 26 48 44 48 22 0 58 59 53 88 -3 14 -1 20 5 14
4 -4 11 -31 15 -59z"/>
</g>
</svg>
